<svg xmlns="http://www.w3.org/2000/svg" width="24" height="24" viewBox="0 0 24 24" fill="none" stroke="#E6EDF3" stroke-width="1.8" stroke-linecap="round" stroke-linejoin="round">

  <circle cx="12" cy="12" r="3"/>
  <path d="M19.4 15a1 1 0 0 0 .2 1.1l.1.1a2 2 0 1 1-2.8 2.8l-.1-.1a1 1 0 0 0-1.1-.2 1 1 0 0 0-.6.9V20a2 2 0 1 1-4 0v-.2a1 1 0 0 0-.6-.9 1 1 0 0 0-1.1.2l-.1.1a2 2 0 1 1-2.8-2.8l.1-.1A1 1 0 0 0 4.6 15a1 1 0 0 0-.9-.6H3.5a2 2 0 1 1 0-4h.2a1 1 0 0 0 .9-.6 1 1 0 0 0-.2-1.1l-.1-.1a2 2 0 1 1 2.8-2.8l.1.1a1 1 0 0 0 1.1.2 1 1 0 0 0 .6-.9V4a2 2 0 1 1 4 0v.2a1 1 0 0 0 .6.9 1 1 0 0 0 1.1-.2l.1-.1a2 2 0 1 1 2.8 2.8l-.1.1a1 1 0 0 0-.2 1.1 1 1 0 0 0 .9.6h.2a2 2 0 1 1 0 4h-.2a1 1 0 0 0-.9.6Z"/>

</svg>
